<?xml version="1.0" encoding="utf-8"?>
<!-- Svg Vector Icons : http://www.onlinewebfonts.com/icon -->
<!DOCTYPE svg PUBLIC "-//W3C//DTD SVG 1.1//EN" "http://www.w3.org/Graphics/SVG/1.1/DTD/svg11.dtd">
<svg version="1.1" xmlns="http://www.w3.org/2000/svg" xmlns:xlink="http://www.w3.org/1999/xlink" x="0px" y="0px" viewBox="0 0 1000 1000" enable-background="new 0 0 1000 1000" xml:space="preserve">
<metadata> Svg Vector Icons : http://www.onlinewebfonts.com/icon </metadata>
<g><g transform="translate(0.000000,511.000000) scale(0.100000,-0.100000)"><path d="M9507.1,4366.9c-138.7-93.1-142.8-113.8-142.8-846.4v-656L9062.2,2227L8760,1589.7L8400-117.6l-360.1-1707.3l4.2-1096.8c6.2-1038.9,8.3-1101,45.5-1154.7c49.7-72.4,134.5-118,223.5-118c93.1,0,161.4,39.3,217.3,122.1l47.6,70.4v1078.2v1078.2L8919.4-217l343.5,1628.7l314.6,658.1l314.6,658.1l6.2,745c4.2,718.1,4.2,747.1-37.2,813.3c-43.4,70.4-149,128.3-233.8,128.3C9600.3,4414.5,9546.4,4393.8,9507.1,4366.9z"/><path d="M2121.3,3715c-360.1-95.2-629.1-395.3-682.9-763.6c-10.3-78.6-14.5-175.9-6.2-217.3l10.3-76.6l-620.8-310.4c-631.2-316.6-691.2-356-718.1-480.1c-29-126.2,124.2-308.3,260.8-308.3c33.1,0,324.9,132.4,680.8,310.4l625,312.5l107.6-80.7c140.7-109.7,211.1-142.8,378.7-182.1c95.2-22.8,184.2-29,275.2-20.7l134.5,14.5l411.8-413.9l411.8-411.8l-324.9-1459l-324.9-1459l6.2-1092.7c6.2-1034.7,8.3-1098.9,45.5-1152.7c49.7-72.4,134.5-118,223.5-118c93.1,0,161.4,39.3,217.3,122.1l47.6,70.4v1078.2v1080.2l186.3,836.1c101.4,461.5,192.5,860.9,198.7,889.9c10.3,35.2,72.4-204.9,200.7-765.7l188.3-817.4l10.3-1158.9c12.4-1092.7,14.5-1163,51.7-1216.8c49.7-72.4,134.5-118,223.5-118c93.1,0,161.4,39.3,217.3,122.1l47.6,70.4v1109.2v1111.3l-329,1477.6c-182.1,813.3-335.3,1508.6-343.5,1541.7c-10.3,43.5-153.1,202.8-463.6,515.3c-246.3,248.3-432.5,449.1-416,442.9c16.5-6.2,461.5-153.1,989.2-329l956.1-318.7l974.7,324.9l976.8,324.9l115.9-91.1c142.8-111.7,260.7-165.6,440.8-198.7c538.1-99.3,1072,353.9,1072,912.6c0,449.1-339.4,840.2-794.7,914.7c-380.8,62.1-794.7-155.2-962.3-505c-68.3-144.9-113.8-374.6-95.2-478l12.4-66.2l-430.4-142.8c-235.9-78.6-442.9-146.9-457.3-153.1c-18.6-6.2-12.4,26.9,18.6,101.4c167.6,426.3-31,943.7-442.9,1146.5c-378.7,188.3-786.4,124.2-1078.2-169.7c-258.7-256.6-343.5-664.3-206.9-989.2c16.6-41.4,26.9-80.7,22.8-84.8c-4.1-4.1-204.9,57.9-444.9,138.7l-438.7,146.9v109.7c0,463.6-318.7,856.8-763.6,941.6C2365.5,3760.5,2280.6,3756.4,2121.3,3715z M2574.5,3145.9c107.6-70.4,167.6-188.3,167.6-324.9c0-256.6-223.5-434.6-486.3-384.9c-144.9,29-298,221.4-300.1,380.8c0,138.7,107.6,308.4,238,368.4C2291,3230.7,2473.1,3212.1,2574.5,3145.9z M5157.1,3183.1C5308.2,3119,5391,2992.7,5391,2821c0-256.6-223.5-434.6-486.3-384.9c-144.9,29-298,221.4-300.1,380.8c0,140.7,109.7,310.4,238,368.4C4925.4,3222.4,5066.1,3220.4,5157.1,3183.1z M7806,3183.1c151.1-64.2,233.8-190.4,233.8-362.2c0-256.6-223.5-434.6-486.3-384.9c-144.9,29-298,221.4-300.1,380.8c0,140.7,109.7,310.4,238,368.4C7574.3,3222.4,7715,3220.4,7806,3183.1z"/><path d="M898.2,1386.9c-39.3-24.8-86.9-80.7-107.6-122.1l-37.3-76.6l327-1454.8l327-1454.8l10.4-1148.5c10.3-1084.4,12.4-1152.7,49.7-1206.5c49.7-72.4,134.5-118,223.5-118c93.1,0,161.4,39.3,217.3,122.1l47.6,70.4v1109.2v1111.3L1616.3-256.3c-190.4,850.5-355.9,1550-374.6,1579c-37.2,57.9-146.9,111.7-223.5,111.7C991.4,1434.4,937.5,1413.8,898.2,1386.9z"/><path d="M6204.3,1393.1c-37.2-20.7-80.7-60-97.2-86.9c-16.6-26.9-186.3-742.9-374.6-1591.4l-343.5-1545.9l6.2-1092.7c6.2-1034.7,8.3-1098.9,45.5-1152.7c49.7-72.4,134.5-118,223.5-118c93.1,0,161.4,39.3,217.3,122.1l47.6,70.4v1078.2v1080.2l186.3,836.1C6216.7-546,6307.8-146.6,6314-117.6c10.4,35.2,72.4-204.9,200.7-765.7l188.3-817.4l10.4-1158.9c12.4-1092.7,14.5-1163,51.7-1216.8c49.6-72.4,134.5-118,223.5-118c93.1,0,161.4,39.3,217.3,122.1l47.6,70.4v1109.2v1109.2L6914.1-256.3c-192.5,863-353.9,1548-374.6,1579c-37.2,57.9-144.9,111.7-221.4,111.7C6291.2,1434.4,6241.5,1415.8,6204.3,1393.1z"/></g></g>
</svg>