<?xml version="1.0" encoding="utf-8"?>
<!-- Svg Vector Icons : http://www.onlinewebfonts.com/icon -->
<!DOCTYPE svg PUBLIC "-//W3C//DTD SVG 1.1//EN" "http://www.w3.org/Graphics/SVG/1.1/DTD/svg11.dtd">
<svg version="1.1" xmlns="http://www.w3.org/2000/svg" xmlns:xlink="http://www.w3.org/1999/xlink" x="0px" y="0px" viewBox="0 0 1000 1000" enable-background="new 0 0 1000 1000" xml:space="preserve">
<metadata> Svg Vector Icons : http://www.onlinewebfonts.com/icon </metadata>
<g><g transform="translate(0.000000,465.000000) scale(0.100000,-0.100000)"><path d="M4816.2,4366.1c-61.2-10.2-157.2-40.8-214.4-67.4c-112.3-51-4273.2-3287.1-4414-3432c-81.7-81.7-87.8-98-87.8-198c0-234.8,206.2-383.8,408.3-296c38.8,16.3,1022.9,771.7,2184.6,1678.2c1161.7,908.5,2141.7,1668,2174.4,1688.4c89.8,53.1,189.9,47,298.1-20.4c49-32.7,1039.2-753.4,2196.8-1602.7C9046.5,885.1,9487.5,570.6,9550.8,560.4c110.3-18.4,251.1,44.9,308.3,136.8c49,79.6,55.1,236.8,12.2,320.5c-18.4,34.7-314.4,263.4-775.8,602.3l-747.2,545.1v714.6c0,804.4-4.1,833-130.7,886.1c-55.1,24.5-171.5,30.6-502.2,30.6c-457.3,0-545.1-14.3-590.1-98c-12.2-24.5-22.4-161.3-22.4-320.5c0-234.8-4.1-277.7-28.6-269.5c-16.3,6.1-377.7,265.4-802.4,577.8c-424.7,310.3-816.7,585.9-873.8,612.5c-100,47-318.5,91.9-418.5,87.8C4951,4384.4,4877.5,4376.3,4816.2,4366.1z"/><path d="M4824.4,2738.9c-61.3-22.5-216.4-120.5-377.7-238.9C3856.6,2063.1,1006.5-68.4,963.6-105.1l-47-38.8V-2255c0-1341.4,8.2-2149.9,20.4-2219.3c44.9-238.9,187.8-426.7,404.2-532.9l136.8-67.4l1076-6.1l1078-6.1l4.1,1674.1c6.1,1653.7,6.1,1674.2,49,1729.3c22.5,30.6,67.4,75.5,98,98c55.1,40.8,81.7,42.9,1090.2,49c1155.6,6.1,1127,8.2,1223-136.8l47-69.4v-1672.1v-1670l1190.3,4.1l1188.2,6.1l116.4,55.1c218.5,102.1,379.7,308.3,424.7,545.1c22.4,122.5,28.6,3924,6.1,4197.6l-12.2,163.3L7172.3,1295.4c-1298.5,969.8-1915.1,1418.9-1982.4,1443.4C5065.3,2783.8,4955,2783.8,4824.4,2738.9z M7006.9,1152.5L8858.7-233.8l-4.1-2145.8l-6.1-2143.7l-51-91.9c-67.4-118.4-196-214.4-326.7-243c-67.4-14.3-457.3-22.4-1102.5-22.4H6367.9V-3333c0,1717,4.1,1655.8-134.7,1817.1c-38.8,44.9-116.4,106.2-175.6,134.8l-106.2,53.1H4899.9H3846.4l-102.1-49c-122.5-59.2-218.5-155.2-273.6-277.7c-40.8-89.8-42.9-126.6-42.9-1657.8v-1568h-898.3c-569.6,0-935.1,8.2-1000.4,22.4c-130.7,28.6-259.3,124.6-326.7,243l-51,91.9l-6.1,2143.7l-4.1,2145.8l1790.5,1337.3c986.1,737,1829.3,1365.9,1874.2,1394.4c71.5,49,98,55.1,214.4,49l132.7-6.1L7006.9,1152.5z"/></g></g>
</svg>