<?xml version="1.0" encoding="utf-8"?>
<!-- Svg Vector Icons : http://www.onlinewebfonts.com/icon -->
<!DOCTYPE svg PUBLIC "-//W3C//DTD SVG 1.1//EN" "http://www.w3.org/Graphics/SVG/1.1/DTD/svg11.dtd">
<svg version="1.1" xmlns="http://www.w3.org/2000/svg" xmlns:xlink="http://www.w3.org/1999/xlink" x="0px" y="0px" viewBox="0 0 1000 1000" enable-background="new 0 0 1000 1000" xml:space="preserve">
<metadata> Svg Vector Icons : http://www.onlinewebfonts.com/icon </metadata>
<g><g><g id="nature_photo"><g><path d="M921.6,135.3H78.4C40.7,135.3,10,166,10,203.7v592.6c0,37.7,30.7,68.4,68.4,68.4h843.3c37.7,0,68.4-30.7,68.4-68.4V203.7C990,166,959.3,135.3,921.6,135.3z M78.4,180.9h843.3c12.6,0,22.8,10.2,22.8,22.8v465c-34.9-15.6-73.3-28.4-114-38.9v-53.9c39.2-12.1,68.4-54.1,68.4-104.4c0-59.7-40.9-108.3-91.2-108.3c-50.3,0-91.2,48.6-91.2,108.3c0,50.3,29.2,92.3,68.4,104.4V619C712.3,603.9,634.3,595.2,557,591V431.6h45.6c9.7,0,18.4-6.2,21.6-15.4c3.2-9.2,0.1-19.4-7.6-25.4L411.4,231.3c-8.2-6.4-19.8-6.4-28,0L178.3,390.9c-7.7,6-10.7,16.2-7.6,25.4c3.2,9.2,11.8,15.4,21.6,15.4h45.6v162.3c-82.5,5.3-147.9,12.6-182.3,16.8v-407C55.6,191.2,65.8,180.9,78.4,180.9z M807.7,534.2c-24.7,0-45.6-28.7-45.6-62.7c0-34,20.9-62.7,45.6-62.7c24.7,0,45.6,28.7,45.6,62.7C853.3,505.5,832.4,534.2,807.7,534.2z M443,587.7V477.2h-91.2v111.5c-22.2,0.6-43.8,1.4-64.7,2.4h-3.7V431.6h227.9V589C488.4,588.2,465.5,587.8,443,587.7z M258.8,386l138.7-107.9L536.1,386H258.8z M921.6,819.1H78.4c-12.6,0-22.8-10.2-22.8-22.8V656.8c38.5-4.8,130.9-15,245.6-20h247.2c144.8,7.3,291.1,30,396.1,82.5v77C944.4,808.8,934.2,819.1,921.6,819.1z"/></g></g></g><g></g><g></g><g></g><g></g><g></g><g></g><g></g><g></g><g></g><g></g><g></g><g></g><g></g><g></g><g></g></g>
</svg>