<?xml version="1.0" encoding="utf-8"?>
<!-- Svg Vector Icons : http://www.onlinewebfonts.com/icon -->
<!DOCTYPE svg PUBLIC "-//W3C//DTD SVG 1.1//EN" "http://www.w3.org/Graphics/SVG/1.1/DTD/svg11.dtd">
<svg version="1.1" xmlns="http://www.w3.org/2000/svg" xmlns:xlink="http://www.w3.org/1999/xlink" x="0px" y="0px" viewBox="0 0 1000 1000" enable-background="new 0 0 1000 1000" xml:space="preserve">
<metadata> Svg Vector Icons : http://www.onlinewebfonts.com/icon </metadata>
<g><g><path d="M10,874.2V394.7c0-148.3,120.7-269,269-269h442c148.3,0,269,120.7,269,269v82.7c0,148.3-120.7,269-269,269H285.2L10,874.2z M279,185.7c-115.2,0-209,93.8-209,209v385.5l202-93.9H721c115.2,0,209-93.8,209-209v-82.7c0-115.2-93.8-209-209.1-209L279,185.7L279,185.7z M298.7,390.2c31.5,0,57,25.5,57,57c0,31.5-25.5,57-57,57c-31.5,0-57-25.5-57-57C241.7,415.7,267.2,390.2,298.7,390.2z M701.2,390.2c31.5,0,57,25.5,57,57c0,31.5-25.5,57-57,57c-31.5,0-57-25.5-57-57C644.2,415.7,669.7,390.2,701.2,390.2z M500,390.2c31.5,0,57,25.5,57,57c0,31.5-25.5,57-57,57c-31.5,0-57-25.5-57-57C442.9,415.7,468.5,390.2,500,390.2z"/></g><g></g><g></g><g></g><g></g><g></g><g></g><g></g><g></g><g></g><g></g><g></g><g></g><g></g><g></g><g></g></g>
</svg>