<?xml version="1.0" encoding="utf-8"?>
<!-- Svg Vector Icons : http://www.onlinewebfonts.com/icon -->
<!DOCTYPE svg PUBLIC "-//W3C//DTD SVG 1.1//EN" "http://www.w3.org/Graphics/SVG/1.1/DTD/svg11.dtd">
<svg version="1.1" xmlns="http://www.w3.org/2000/svg" xmlns:xlink="http://www.w3.org/1999/xlink" x="0px" y="0px" viewBox="0 0 1000 1000" enable-background="new 0 0 1000 1000" xml:space="preserve">
<metadata> Svg Vector Icons : http://www.onlinewebfonts.com/icon </metadata>
<g><path d="M500,10C230.5,10,10,230.5,10,500s220.5,490,490,490s490-220.5,490-490S769.5,10,500,10L500,10z M451,887.1C259.9,862.6,108,696,108,500c0-29.4,4.9-58.8,9.8-88.2L353,647v49c0,53.9,44.1,98,98,98V887.1L451,887.1z M789.1,764.6c-14.7-39.2-49-68.6-93.1-68.6h-49V549c0-29.4-19.6-49-49-49H304v-98h98c29.4,0,49-19.6,49-49v-98h98c53.9,0,98-44.1,98-98v-19.6C789.1,196.2,892,338.3,892,500C892,602.9,852.8,696,789.1,764.6L789.1,764.6z"/></g>
</svg>