<?xml version="1.0" encoding="utf-8"?>
<!-- Svg Vector Icons : http://www.onlinewebfonts.com/icon -->
<!DOCTYPE svg PUBLIC "-//W3C//DTD SVG 1.1//EN" "http://www.w3.org/Graphics/SVG/1.1/DTD/svg11.dtd">
<svg version="1.1" xmlns="http://www.w3.org/2000/svg" xmlns:xlink="http://www.w3.org/1999/xlink" x="0px" y="0px" viewBox="0 0 1000 1000" enable-background="new 0 0 1000 1000" xml:space="preserve">
<metadata> Svg Vector Icons : http://www.onlinewebfonts.com/icon </metadata>
<g><path d="M153.4,151.3C56.4,248.2,8,364.1,10.1,499C8,633.8,56.4,749.8,153.4,844.6v2.1c94.8,94.8,210.7,141.2,347.7,143.3c134.9-2.1,248.7-48.5,345.6-145.4C941.5,749.7,990,633.8,990,499c0-134.9-48.5-250.8-143.3-347.7l0,0C749.8,56.4,636,8,501.1,10.1C364.1,8,248.2,56.4,153.4,151.3z M195.5,197.6h2.1c84.3-84.3,185.5-126.4,303.5-124.3c118-2.1,217,40,301.3,124.3C884.6,279.8,926.8,381,926.8,499c0,118-42.1,219.2-124.3,301.4c-84.3,84.3-183.3,124.3-301.3,126.4c-120.1-2.1-221.3-42.1-305.6-126.4C113.3,718.2,73.3,617,73.3,499C73.3,381,113.3,281.9,195.5,197.6z"/><path d="M402,225c-14.8,16.9-27.4,33.7-35.8,52.7c0,2.1,0,2.1,0,4.2c-2.1,4.2-2.1,10.5-4.2,14.8c0,2.1,0,2.1,0,4.2v101.2h-35.8c-19-2.1-31.6,4.2-42.1,14.7c-10.5,8.4-14.8,21.1-14.8,40.1v250.8c0,19,4.2,33.7,14.8,42.1c10.5,10.5,23.2,14.8,42.1,14.8h358.3c37.9,0,56.9-19,56.9-56.9V456.8c0-19-4.2-31.6-14.8-40.1c-8.4-10.5-23.2-16.9-42.1-14.7h-35.8l0-101.2c0-2.1,0-4.2,0-6.3c-2.1-4.2-4.2-8.4-4.2-12.6c0-2.1,0-2.1,0-4.2c-8.4-19-18.9-35.8-35.8-52.7c-27.4-27.4-63.2-42.1-103.3-42.1C465.3,182.9,431.5,197.6,402,225z M431.5,256.6l2.1-2.1c19-19,44.3-29.5,71.6-29.5c29.5,0,54.8,10.5,73.8,29.5c10.5,10.5,19,23.2,25.3,37.9l0,0c2.1,4.2,2.1,6.3,2.1,10.5V402H404.2V303c2.1-2.1,2.1-6.3,2.1-10.5C412.6,277.7,421,267.2,431.5,256.6z M311.4,456.8c0-4.2,2.1-8.4,2.1-10.5c4.2-2.1,8.4-2.1,12.6-2.1h360.4c4.2,0,8.4,0,10.5,2.1c0,2.1,2.1,6.3,2.1,10.5v250.8c0,10.5-4.2,14.8-14.8,14.8H326.2c-4.2,0-8.4,0-12.6-2.1c0-2.1-2.1-6.3-2.1-10.5V456.8z"/><path d="M503.2,511.6c-8.4,0-16.9,2.1-25.3,8.4c-6.3,6.3-8.4,14.8-8.4,25.3c0,8.4,2.1,16.9,8.4,23.2c2.1,2.1,4.2,4.2,6.3,6.3c-2.1,0-2.1,2.1-2.1,4.2V636c0,4.2,2.1,10.5,6.3,14.8c4.2,4.2,10.5,6.3,14.7,6.3c6.3,0,10.5-2.1,14.7-6.3c4.2-4.2,6.3-10.5,6.3-14.8V579c0-2.1,0-4.2,0-6.3c0,0,2.1-2.1,4.2-4.2c6.3-6.3,8.4-14.8,8.4-23.2c0-10.5-2.1-19-8.4-25.3C522.1,513.7,513.7,511.6,503.2,511.6z"/></g>
</svg>